0
SECTION
2
HEADER
9
$INSUNITS
70
4
9
$ACADVER
1
AC1014
9
$HANDSEED
5
FFFF
0
ENDSEC
0
SECTION
2
TABLES
0
TABLE
2
VPORT
5
8
100
AcDbSymbolTable
0
ENDTAB
0
TABLE
2
LTYPE
5
5
100
AcDbSymbolTable
0
LTYPE
5
14
100
AcDbSymbolTableRecord
100
AcDbLinetypeTableRecord
2
BYBLOCK
70
0
0
LTYPE
5
15
100
AcDbSymbolTableRecord
100
AcDbLinetypeTableRecord
2
BYLAYER
70
0
0
ENDTAB
0
TABLE
2
LAYER
5
2
100
AcDbSymbolTable
70
2
0
LAYER
5
50
100
AcDbSymbolTableRecord
100
AcDbLayerTableRecord
2
0
70
0
6
CONTINUOUS
0
ENDTAB
0
TABLE
2
STYLE
5
3
100
AcDbSymbolTable
70
1
0
STYLE
5
11
100
AcDbSymbolTableRecord
100
AcDbTextStyleTableRecord
2
STANDARD
70
0
0
ENDTAB
0
TABLE
2
VIEW
5
6
100
AcDbSymbolTable
70
0
0
ENDTAB
0
TABLE
2
UCS
5
7
100
AcDbSymbolTable
70
0
0
ENDTAB
0
TABLE
2
APPID
5
9
100
AcDbSymbolTable
70
2
0
APPID
5
12
100
AcDbSymbolTableRecord
100
AcDbRegAppTableRecord
2
ACAD
70
0
0
ENDTAB
0
TABLE
2
DIMSTYLE
5
A
100
AcDbSymbolTable
70
1
0
ENDTAB
0
TABLE
2
BLOCK_RECORD
5
1
100
AcDbSymbolTable
70
1
0
BLOCK_RECORD
5
1F
100
AcDbSymbolTableRecord
100
AcDbBlockTableRecord
2
*MODEL_SPACE
0
BLOCK_RECORD
5
1B
100
AcDbSymbolTableRecord
100
AcDbBlockTableRecord
2
*PAPER_SPACE
0
ENDTAB
0
ENDSEC
0
SECTION
2
BLOCKS
0
BLOCK
5
20
100
AcDbEntity
100
AcDbBlockBegin
2
*MODEL_SPACE
0
ENDBLK
5
21
100
AcDbEntity
100
AcDbBlockEnd
0
BLOCK
5
1C
100
AcDbEntity
100
AcDbBlockBegin
2
*PAPER_SPACE
0
ENDBLK
5
1D
100
AcDbEntity
100
AcDbBlockEnd
0
ENDSEC
0
SECTION
2
ENTITIES
0
LWPOLYLINE
5
100
100
AcDbEntity
8
0
100
AcDbPolyline
90
8
70
1
43
0.0
10
35.075000000000017
20
12.050000000000001
42
0.41421356237308982
10
35.57500000000001
20
12.54999999999999
10
35.575000000000017
20
25.549999999999979
42
0.41421356237309509
10
35.075000000000017
20
26.049999999999976
10
22.075000000000014
20
26.049999999999986
42
0.41421356237308982
10
21.575000000000006
20
25.549999999999979
10
21.575000000000024
20
12.54999999999999
42
0.41421356237308982
10
22.075000000000014
20
12.050000000000001
0
LWPOLYLINE
5
101
100
AcDbEntity
8
0
100
AcDbPolyline
90
8
70
1
43
0.0
10
-98.274999999999991
20
12.050000000000001
42
0.41421356237309892
10
-97.775000000000006
20
12.54999999999999
10
-97.774999999999977
20
25.549999999999979
42
0.41421356237307161
10
-98.274999999999991
20
26.049999999999986
10
-111.27499999999999
20
26.049999999999986
42
0.41421356237307161
10
-111.77500000000001
20
25.549999999999979
10
-111.77500000000001
20
12.54999999999999
42
0.41421356237307549
10
-111.27499999999999
20
12.049999999999983
0
LWPOLYLINE
5
102
100
AcDbEntity
8
0
100
AcDbPolyline
90
8
70
1
43
0.0
10
-41.125000000000007
20
12.050000000000001
42
0.41421356237308465
10
-40.625000000000014
20
12.54999999999999
10
-40.625
20
25.549999999999979
42
0.4142135623731002
10
-41.125000000000007
20
26.049999999999986
10
-54.125
20
26.049999999999986
42
0.4142135623731002
10
-54.625
20
25.549999999999979
10
-54.625
20
12.54999999999999
42
0.41421356237310542
10
-54.125
20
12.049999999999983
0
LWPOLYLINE
5
103
100
AcDbEntity
8
0
100
AcDbPolyline
90
8
70
1
43
0.0
10
16.025000000000009
20
12.050000000000001
42
0.41421356237309509
10
16.524999999999999
20
12.54999999999999
10
16.524999999999999
20
25.549999999999979
42
0.41421356237308982
10
16.025000000000009
20
26.049999999999969
10
3.0250000000000021
20
26.049999999999986
42
0.41421356237309109
10
2.524999999999995
20
25.549999999999979
10
2.524999999999995
20
12.54999999999999
42
0.41421356237309692
10
3.0250000000000021
20
12.049999999999983
0
LWPOLYLINE
5
104
100
AcDbEntity
8
0
100
AcDbPolyline
90
8
70
1
43
0.0
10
-22.074999999999996
20
12.050000000000001
42
0.41421356237308982
10
-21.575000000000006
20
12.54999999999999
10
-21.574999999999989
20
25.549999999999979
42
0.41421356237308982
10
-22.074999999999996
20
26.049999999999986
10
-35.074999999999989
20
26.049999999999986
42
0.41421356237308982
10
-35.574999999999989
20
25.549999999999979
10
-35.574999999999989
20
12.54999999999999
42
0.41421356237309243
10
-35.074999999999989
20
12.049999999999983
0
LWPOLYLINE
5
105
100
AcDbEntity
8
0
100
AcDbPolyline
90
8
70
1
43
0.0
10
-3.0250000000000021
20
12.050000000000001
42
0.41421356237309537
10
-2.5250000000000123
20
12.54999999999999
10
-2.524999999999995
20
25.549999999999979
42
0.41421356237309109
10
-3.0250000000000021
20
26.049999999999986
10
-16.024999999999974
20
26.049999999999986
42
0.41421356237309243
10
-16.524999999999981
20
25.549999999999979
10
-16.524999999999981
20
12.54999999999999
42
0.4142135623731002
10
-16.024999999999974
20
12.049999999999983
0
LWPOLYLINE
5
106
100
AcDbEntity
8
0
100
AcDbPolyline
90
8
70
1
43
0.0
10
-79.225000000000009
20
12.050000000000001
42
0.41421356237308465
10
-78.725000000000023
20
12.54999999999999
10
-78.725000000000009
20
25.549999999999979
42
0.4142135623731002
10
-79.225000000000009
20
26.049999999999986
10
-92.225000000000023
20
26.049999999999986
42
0.41421356237307161
10
-92.725000000000023
20
25.549999999999979
10
-92.724999999999994
20
12.54999999999999
42
0.41421356237309637
10
-92.225000000000023
20
12.050000000000018
0
LWPOLYLINE
5
107
100
AcDbEntity
8
0
100
AcDbPolyline
90
8
70
1
43
0.0
10
-60.174999999999997
20
12.050000000000001
42
0.41421356237308465
10
-59.675000000000011
20
12.54999999999999
10
-59.674999999999997
20
25.549999999999979
42
0.4142135623731002
10
-60.174999999999997
20
26.049999999999986
10
-73.174999999999969
20
26.049999999999986
42
0.4142135623731002
10
-73.674999999999983
20
25.549999999999979
10
-73.674999999999983
20
12.54999999999999
42
0.41421356237310542
10
-73.174999999999969
20
12.049999999999983
0
LWPOLYLINE
5
108
100
AcDbEntity
8
0
100
AcDbPolyline
90
8
70
1
43
0.0
10
54.125000000000014
20
31.099999999999977
42
0.4142135623731002
10
54.625000000000028
20
31.599999999999984
10
54.625000000000014
20
44.599999999999994
42
0.41421356237310542
10
54.125000000000014
20
45.099999999999987
10
41.125000000000014
20
45.09999999999998
42
0.41421356237308465
10
40.625000000000028
20
44.599999999999994
10
40.625000000000014
20
31.599999999999984
42
0.41421356237309509
10
41.125000000000014
20
31.099999999999987
0
LWPOLYLINE
5
109
100
AcDbEntity
8
0
100
AcDbPolyline
90
8
70
1
43
0.0
10
92.225000000000023
20
31.099999999999977
42
0.41421356237307161
10
92.725000000000023
20
31.599999999999984
10
92.725000000000009
20
44.599999999999994
42
0.41421356237309509
10
92.225000000000023
20
45.09999999999998
10
79.225000000000009
20
45.09999999999998
42
0.41421356237307427
10
78.725000000000023
20
44.599999999999994
10
78.725000000000009
20
31.599999999999984
42
0.4142135623731002
10
79.225000000000009
20
31.099999999999977
0
LWPOLYLINE
5
110
100
AcDbEntity
8
0
100
AcDbPolyline
90
8
70
1
43
0.0
10
-60.174999999999997
20
-7.0000000000000107
42
0.41421356237310281
10
-59.674999999999997
20
-6.5000000000000036
10
-59.674999999999997
20
6.5000000000000036
42
0.41421356237310281
10
-60.174999999999997
20
7.0000000000000107
10
-73.174999999999969
20
6.9999999999999929
42
0.41421356237308526
10
-73.674999999999955
20
6.5000000000000036
10
-73.674999999999983
20
-6.5000000000000036
42
0.41421356237310281
10
-73.174999999999969
20
-7.0000000000000107
0
LWPOLYLINE
5
111
100
AcDbEntity
8
0
100
AcDbPolyline
90
8
70
1
43
0.0
10
73.175000000000011
20
12.050000000000001
42
0.41421356237309509
10
73.675000000000011
20
12.54999999999999
10
73.675000000000011
20
25.549999999999979
42
0.41421356237309509
10
73.175000000000011
20
26.049999999999976
10
60.175000000000011
20
26.049999999999986
42
0.41421356237309509
10
59.675000000000004
20
25.549999999999979
10
59.675000000000011
20
12.54999999999999
42
0.41421356237309509
10
60.175000000000011
20
12.049999999999992
0
LWPOLYLINE
5
112
100
AcDbEntity
8
0
100
AcDbPolyline
90
8
70
1
43
0.0
10
54.125000000000014
20
12.050000000000001
42
0.41421356237308465
10
54.625
20
12.54999999999999
10
54.625000000000014
20
25.549999999999979
42
0.41421356237309764
10
54.125000000000014
20
26.049999999999976
10
41.125000000000014
20
26.049999999999986
42
0.41421356237309509
10
40.625000000000007
20
25.549999999999979
10
40.625000000000014
20
12.54999999999999
42
0.41421356237309509
10
41.125000000000014
20
12.049999999999992
0
LWPOLYLINE
5
113
100
AcDbEntity
8
0
100
AcDbPolyline
90
44
70
1
43
0.0
10
35.075000000000003
20
31.099999999999959
10
34.487999999999985
20
31.099999999999959
10
34.488
20
29.599999999999955
42
-0.41421356237308982
10
33.988
20
29.099999999999948
10
27.988
20
29.099999999999948
42
-0.41421356237308982
10
27.487999999999992
20
29.599999999999955
10
27.487999999999992
20
31.099999999999959
10
15.438000000000009
20
31.099999999999959
10
15.438000000000013
20
29.599999999999955
42
-0.41421356237309243
10
14.938000000000002
20
29.099999999999948
10
4.112000000000009
20
29.099999999999966
42
-0.41421356237309048
10
3.6120000000000196
20
29.599999999999955
10
3.6120000000000196
20
31.099999999999959
10
-3.6120000000000019
20
31.099999999999959
10
-3.6119999999999997
20
29.599999999999955
42
-0.41421356237309109
10
-4.112000000000009
20
29.099999999999948
10
-14.937999999999985
20
29.099999999999966
42
-0.41421356237308982
10
-15.437999999999974
20
29.599999999999955
10
-15.437999999999974
20
31.099999999999959
10
-27.487999999999975
20
31.099999999999959
10
-27.487999999999975
20
29.599999999999955
42
-0.41421356237308982
10
-27.987999999999982
20
29.099999999999948
10
-33.988
20
29.099999999999948
42
-0.41421356237308982
10
-34.488
20
29.599999999999955
10
-34.488
20
31.099999999999959
10
-35.075000000000003
20
31.099999999999959
42
-0.41421356237308465
10
-35.574999999999989
20
31.599999999999948
10
-35.575000000000003
20
44.599999999999952
42
-0.4142135623731002
10
-35.075000000000003
20
45.099999999999966
10
-12.54999999999999
20
45.099999999999966
42
-0.41421356237310542
10
-12.049999999999983
20
44.599999999999952
10
-12.049999999999983
20
44.099999999999952
10
-6.9999999999999929
20
44.099999999999952
10
-6.9999999999999885
20
44.599999999999952
42
-0.41421356237310281
10
-6.4999999999999858
20
45.099999999999966
10
6.5000000000000036
20
45.099999999999966
42
-0.41421356237310281
10
7.0000000000000107
20
44.599999999999952
10
7.0000000000000107
20
44.099999999999952
10
12.050000000000001
20
44.099999999999952
10
12.050000000000001
20
44.599999999999952
42
-0.41421356237310542
10
12.550000000000008
20
45.099999999999966
10
35.075000000000003
20
45.099999999999973
42
-0.4142135623731002
10
35.57500000000001
20
44.599999999999952
10
35.574999999999989
20
31.599999999999948
42
-0.41421356237308465
0
LWPOLYLINE
5
114
100
AcDbEntity
8
0
100
AcDbPolyline
90
8
70
1
43
0.0
10
-79.225000000000009
20
-7.0000000000000107
42
0.41421356237310281
10
-78.725000000000009
20
-6.5000000000000036
10
-78.725000000000009
20
6.5000000000000036
42
0.41421356237310281
10
-79.225000000000009
20
7.0000000000000107
10
-92.225000000000023
20
6.9999999999999929
42
0.41421356237309959
10
-92.725000000000009
20
6.5000000000000036
10
-92.724999999999994
20
-6.5000000000000036
42
0.41421356237309637
10
-92.225000000000023
20
-6.9999999999999751
0
LWPOLYLINE
5
115
100
AcDbEntity
8
0
100
AcDbPolyline
90
8
70
1
43
0.0
10
92.225000000000023
20
12.050000000000001
42
0.41421356237309892
10
92.725000000000009
20
12.54999999999999
10
92.725000000000009
20
25.549999999999979
42
0.41421356237309764
10
92.225000000000023
20
26.049999999999969
10
79.225000000000009
20
26.049999999999986
42
0.4142135623731002
10
78.725000000000009
20
25.549999999999979
10
78.725000000000009
20
12.54999999999999
42
0.41421356237310542
10
79.225000000000009
20
12.049999999999983
0
LWPOLYLINE
5
116
100
AcDbEntity
8
0
100
AcDbPolyline
90
8
70
1
43
0.0
10
-22.074999999999996
20
-7.0000000000000107
42
0.41421356237309048
10
-21.574999999999989
20
-6.5000000000000036
10
-21.574999999999989
20
6.5000000000000036
42
0.41421356237309048
10
-22.074999999999996
20
7.0000000000000107
10
-35.074999999999989
20
6.9999999999999929
42
0.41421356237309048
10
-35.574999999999974
20
6.5000000000000036
10
-35.574999999999989
20
-6.5000000000000036
42
0.41421356237309048
10
-35.074999999999989
20
-7.0000000000000107
0
LWPOLYLINE
5
117
100
AcDbEntity
8
0
100
AcDbPolyline
90
8
70
1
43
0.0
10
-41.125000000000007
20
-7.0000000000000107
42
0.41421356237310281
10
-40.625
20
-6.5000000000000036
10
-40.625
20
6.5000000000000036
42
0.41421356237310281
10
-41.125000000000007
20
7.0000000000000107
10
-54.125
20
6.9999999999999929
42
0.41421356237308526
10
-54.624999999999986
20
6.5000000000000036
10
-54.625
20
-6.5000000000000036
42
0.41421356237310281
10
-54.125
20
-7.0000000000000107
0
LWPOLYLINE
5
118
100
AcDbEntity
8
0
100
AcDbPolyline
90
8
70
1
43
0.0
10
-98.274999999999991
20
-7.0000000000000107
42
0.41421356237307289
10
-97.774999999999977
20
-6.5000000000000036
10
-97.774999999999977
20
6.5000000000000036
42
0.41421356237307289
10
-98.274999999999991
20
7.0000000000000107
10
-111.27499999999999
20
6.9999999999999929
42
0.41421356237309959
10
-111.77499999999998
20
6.5000000000000036
10
-111.77500000000001
20
-6.5000000000000036
42
0.41421356237307289
10
-111.27499999999999
20
-7.0000000000000107
0
LWPOLYLINE
5
119
100
AcDbEntity
8
0
100
AcDbPolyline
90
8
70
1
43
0.0
10
111.27500000000001
20
12.050000000000001
42
0.41421356237311457
10
111.77500000000001
20
12.54999999999999
10
111.77500000000002
20
25.549999999999979
42
0.41421356237309243
10
111.27500000000001
20
26.049999999999986
10
98.275000000000006
20
26.049999999999986
42
0.41421356237309243
10
97.775000000000006
20
25.549999999999979
10
97.77500000000002
20
12.54999999999999
42
0.41421356237311457
10
98.275000000000006
20
12.050000000000001
0
LWPOLYLINE
5
120
100
AcDbEntity
8
0
100
AcDbPolyline
90
8
70
1
43
0.0
10
-60.174999999999997
20
-26.050000000000004
42
0.41421356237308204
10
-59.675000000000011
20
-25.550000000000015
10
-59.674999999999997
20
-12.550000000000008
42
0.41421356237310542
10
-60.174999999999997
20
-12.050000000000001
10
-73.174999999999969
20
-12.050000000000001
42
0.41421356237310542
10
-73.674999999999983
20
-12.550000000000008
10
-73.674999999999983
20
-25.550000000000015
42
0.4142135623731002
10
-73.174999999999969
20
-26.050000000000022
0
LWPOLYLINE
5
121
100
AcDbEntity
8
0
100
AcDbPolyline
90
8
70
1
43
0.0
10
-98.274999999999991
20
-26.050000000000004
42
0.41421356237309764
10
-97.775000000000006
20
-25.550000000000015
10
-97.774999999999977
20
-12.550000000000008
42
0.41421356237307549
10
-98.274999999999991
20
-12.050000000000001
10
-111.27499999999999
20
-12.050000000000001
42
0.41421356237307549
10
-111.77500000000001
20
-12.550000000000008
10
-111.77500000000001
20
-25.550000000000015
42
0.41421356237307161
10
-111.27499999999999
20
-26.050000000000022
0
LWPOLYLINE
5
122
100
AcDbEntity
8
0
100
AcDbPolyline
90
8
70
1
43
0.0
10
73.175000000000011
20
-7.0000000000000107
42
0.41421356237309764
10
73.675000000000011
20
-6.5000000000000036
10
73.675000000000011
20
6.5000000000000036
42
0.41421356237309509
10
73.175000000000011
20
7.0000000000000018
10
60.175000000000011
20
6.9999999999999929
42
0.4142135623730957
10
59.675000000000018
20
6.5000000000000036
10
59.675000000000011
20
-6.5000000000000036
42
0.41421356237309509
10
60.175000000000011
20
-7.0000000000000018
0
LWPOLYLINE
5
123
100
AcDbEntity
8
0
100
AcDbPolyline
90
8
70
1
43
0.0
10
73.175000000000011
20
31.099999999999977
42
0.41421356237309509
10
73.675000000000026
20
31.599999999999984
10
73.675000000000011
20
44.599999999999994
42
0.41421356237309509
10
73.175000000000011
20
45.099999999999987
10
60.175000000000011
20
45.09999999999998
42
0.41421356237308465
10
59.675000000000018
20
44.599999999999994
10
59.675000000000011
20
31.599999999999984
42
0.41421356237309509
10
60.175000000000011
20
31.099999999999987
0
LWPOLYLINE
5
124
100
AcDbEntity
8
0
100
AcDbPolyline
90
8
70
1
43
0.0
10
16.025000000000009
20
-26.050000000000004
42
0.41421356237308982
10
16.524999999999999
20
-25.550000000000015
10
16.524999999999999
20
-12.550000000000008
42
0.41421356237309509
10
16.025000000000009
20
-12.050000000000018
10
3.0250000000000021
20
-12.050000000000001
42
0.41421356237309692
10
2.524999999999995
20
-12.550000000000008
10
2.524999999999995
20
-25.550000000000015
42
0.41421356237309109
10
3.0250000000000021
20
-26.050000000000022
0
LWPOLYLINE
5
125
100
AcDbEntity
8
0
100
AcDbPolyline
90
8
70
1
43
0.0
10
-79.225000000000009
20
-26.050000000000004
42
0.41421356237308204
10
-78.725000000000023
20
-25.550000000000015
10
-78.725000000000009
20
-12.550000000000008
42
0.41421356237310542
10
-79.225000000000009
20
-12.050000000000001
10
-92.225000000000023
20
-12.050000000000001
42
0.41421356237307549
10
-92.725000000000023
20
-12.550000000000008
10
-92.724999999999994
20
-25.550000000000015
42
0.41421356237309764
10
-92.225000000000023
20
-26.049999999999986
0
LWPOLYLINE
5
126
100
AcDbEntity
8
0
100
AcDbPolyline
90
8
70
1
43
0.0
10
-3.0250000000000021
20
-26.050000000000004
42
0.41421356237309048
10
-2.5250000000000119
20
-25.550000000000015
10
-2.524999999999995
20
-12.550000000000008
42
0.41421356237309692
10
-3.0250000000000021
20
-12.050000000000001
10
-16.024999999999974
20
-12.050000000000001
42
0.4142135623731002
10
-16.524999999999981
20
-12.550000000000008
10
-16.524999999999981
20
-25.550000000000015
42
0.41421356237309243
10
-16.024999999999974
20
-26.050000000000022
0
LWPOLYLINE
5
127
100
AcDbEntity
8
0
100
AcDbPolyline
90
8
70
1
43
0.0
10
35.075000000000017
20
-7.0000000000000107
42
0.41421356237309048
10
35.575000000000031
20
-6.5000000000000036
10
35.575000000000017
20
6.5000000000000036
42
0.41421356237309637
10
35.075000000000017
20
7.0000000000000018
10
22.075000000000014
20
6.9999999999999929
42
0.41421356237309048
10
21.575000000000024
20
6.5000000000000036
10
21.575000000000024
20
-6.5000000000000036
42
0.41421356237309048
10
22.075000000000014
20
-6.9999999999999929
0
LWPOLYLINE
5
128
100
AcDbEntity
8
0
100
AcDbPolyline
90
8
70
1
43
0.0
10
-41.125000000000007
20
-26.050000000000004
42
0.41421356237308204
10
-40.625000000000014
20
-25.550000000000015
10
-40.625
20
-12.550000000000008
42
0.41421356237310542
10
-41.125000000000007
20
-12.050000000000001
10
-54.125
20
-12.050000000000001
42
0.41421356237310542
10
-54.625
20
-12.550000000000008
10
-54.625
20
-25.550000000000015
42
0.4142135623731002
10
-54.125
20
-26.050000000000022
0
LWPOLYLINE
5
129
100
AcDbEntity
8
0
100
AcDbPolyline
90
8
70
1
43
0.0
10
-22.074999999999996
20
-26.050000000000004
42
0.41421356237308465
10
-21.575000000000006
20
-25.550000000000015
10
-21.574999999999989
20
-12.550000000000008
42
0.41421356237309243
10
-22.074999999999996
20
-12.050000000000001
10
-35.074999999999989
20
-12.050000000000001
42
0.41421356237309243
10
-35.574999999999989
20
-12.550000000000008
10
-35.574999999999989
20
-25.550000000000015
42
0.41421356237308982
10
-35.074999999999989
20
-26.050000000000022
0
LWPOLYLINE
5
130
100
AcDbEntity
8
0
100
AcDbPolyline
90
8
70
1
43
0.0
10
54.125000000000014
20
-26.050000000000004
42
0.41421356237308204
10
54.625
20
-25.550000000000015
10
54.625000000000014
20
-12.550000000000008
42
0.41421356237309764
10
54.125000000000014
20
-12.05000000000001
10
41.125000000000014
20
-12.050000000000001
42
0.4142135623731002
10
40.625000000000007
20
-12.550000000000008
10
40.625000000000014
20
-25.550000000000015
42
0.41421356237309509
10
41.125000000000014
20
-26.050000000000011
0
LWPOLYLINE
5
131
100
AcDbEntity
8
0
100
AcDbPolyline
90
8
70
1
43
0.0
10
73.175000000000011
20
-26.050000000000004
42
0.41421356237309243
10
73.675000000000011
20
-25.550000000000015
10
73.675000000000011
20
-12.550000000000008
42
0.41421356237309509
10
73.175000000000011
20
-12.05000000000001
10
60.175000000000011
20
-12.050000000000001
42
0.4142135623731002
10
59.675000000000004
20
-12.550000000000008
10
59.675000000000011
20
-25.550000000000015
42
0.41421356237309509
10
60.175000000000011
20
-26.050000000000011
0
LWPOLYLINE
5
132
100
AcDbEntity
8
0
100
AcDbPolyline
90
8
70
1
43
0.0
10
111.27500000000001
20
31.099999999999977
42
0.41421356237309243
10
111.77500000000002
20
31.599999999999984
10
111.77500000000002
20
44.599999999999994
42
0.4142135623731002
10
111.27500000000001
20
45.099999999999994
10
98.275000000000006
20
45.09999999999998
42
0.41421356237311063
10
97.77500000000002
20
44.599999999999994
10
97.77500000000002
20
31.599999999999984
42
0.41421356237311319
10
98.275000000000006
20
31.099999999999994
0
LWPOLYLINE
5
133
100
AcDbEntity
8
0
100
AcDbPolyline
90
8
70
1
43
0.0
10
16.025000000000009
20
-7.0000000000000107
42
0.41421356237309692
10
16.525000000000016
20
-6.5000000000000036
10
16.524999999999999
20
6.5000000000000036
42
0.4142135623730957
10
16.025000000000009
20
6.9999999999999929
10
3.0250000000000021
20
6.9999999999999929
42
0.41421356237309598
10
2.5250000000000128
20
6.5000000000000036
10
2.524999999999995
20
-6.5000000000000036
42
0.41421356237309409
10
3.0250000000000021
20
-7.0000000000000107
0
LWPOLYLINE
5
134
100
AcDbEntity
8
0
100
AcDbPolyline
90
8
70
1
43
0.0
10
35.075000000000017
20
-26.050000000000004
42
0.41421356237308465
10
35.57500000000001
20
-25.550000000000015
10
35.575000000000017
20
-12.550000000000008
42
0.41421356237309637
10
35.075000000000017
20
-12.05000000000001
10
22.075000000000014
20
-12.050000000000001
42
0.41421356237309243
10
21.575000000000006
20
-12.550000000000008
10
21.575000000000024
20
-25.550000000000015
42
0.41421356237308465
10
22.075000000000014
20
-26.050000000000004
0
LWPOLYLINE
5
135
100
AcDbEntity
8
0
100
AcDbPolyline
90
8
70
1
43
0.0
10
92.225000000000023
20
-26.050000000000004
42
0.41421356237309764
10
92.725000000000009
20
-25.550000000000015
10
92.725000000000009
20
-12.550000000000008
42
0.41421356237309892
10
92.225000000000023
20
-12.050000000000018
10
79.225000000000009
20
-12.050000000000001
42
0.41421356237310542
10
78.725000000000009
20
-12.550000000000008
10
78.725000000000009
20
-25.550000000000015
42
0.4142135623731002
10
79.225000000000009
20
-26.050000000000022
0
LWPOLYLINE
5
136
100
AcDbEntity
8
0
100
AcDbPolyline
90
8
70
1
43
0.0
10
-79.225000000000009
20
-45.100000000000009
42
0.41421356237310542
10
-78.725000000000009
20
-44.600000000000009
10
-78.725000000000009
20
-31.600000000000009
42
0.4142135623731002
10
-79.225000000000009
20
-31.100000000000001
10
-92.225000000000023
20
-31.100000000000012
42
0.4142135623731002
10
-92.725000000000009
20
-31.600000000000009
10
-92.724999999999994
20
-44.600000000000009
42
0.4142135623731002
10
-92.225000000000023
20
-45.09999999999998
0
LWPOLYLINE
5
137
100
AcDbEntity
8
0
100
AcDbPolyline
90
8
70
1
43
0.0
10
111.27500000000001
20
-7.0000000000000107
42
0.4142135623730937
10
111.77500000000002
20
-6.5000000000000036
10
111.77500000000002
20
6.5000000000000036
42
0.4142135623730937
10
111.27500000000001
20
7.0000000000000107
10
98.275000000000006
20
6.9999999999999929
42
0.41421356237311519
10
97.77500000000002
20
6.5000000000000036
10
97.77500000000002
20
-6.5000000000000036
42
0.41421356237311519
10
98.275000000000006
20
-6.9999999999999929
0
LWPOLYLINE
5
138
100
AcDbEntity
8
0
100
AcDbPolyline
90
8
70
1
43
0.0
10
-22.074999999999996
20
-45.100000000000009
42
0.41421356237309764
10
-21.574999999999992
20
-44.600000000000009
10
-21.574999999999989
20
-31.600000000000009
42
0.41421356237308982
10
-22.074999999999996
20
-31.100000000000001
10
-35.074999999999989
20
-31.100000000000012
42
0.41421356237309509
10
-35.574999999999982
20
-31.600000000000009
10
-35.574999999999989
20
-44.600000000000009
42
0.4142135623731002
10
-35.074999999999989
20
-45.100000000000016
0
LWPOLYLINE
5
139
100
AcDbEntity
8
0
100
AcDbPolyline
90
8
70
1
43
0.0
10
-3.0250000000000021
20
-45.100000000000009
42
0.41421356237309692
10
-2.5250000000000004
20
-44.600000000000009
10
-2.524999999999995
20
-31.600000000000009
42
0.41421356237309109
10
-3.0250000000000021
20
-31.100000000000001
10
-16.024999999999974
20
-31.100000000000012
42
0.41421356237309637
10
-16.52499999999997
20
-31.600000000000009
10
-16.524999999999981
20
-44.600000000000009
42
0.41421356237310542
10
-16.024999999999974
20
-45.100000000000016
0
LWPOLYLINE
5
140
100
AcDbEntity
8
0
100
AcDbPolyline
90
8
70
1
43
0.0
10
16.025000000000009
20
-45.100000000000009
42
0.41421356237309764
10
16.525000000000013
20
-44.600000000000009
10
16.524999999999999
20
-31.600000000000009
42
0.41421356237308982
10
16.025000000000009
20
-31.100000000000023
10
3.0250000000000021
20
-31.100000000000012
42
0.4142135623730957
10
2.5250000000000039
20
-31.600000000000009
10
2.524999999999995
20
-44.600000000000009
42
0.41421356237310319
10
3.0250000000000021
20
-45.100000000000016
0
LWPOLYLINE
5
141
100
AcDbEntity
8
0
100
AcDbPolyline
90
8
70
1
43
0.0
10
-60.174999999999997
20
31.099999999999977
42
0.4142135623731002
10
-59.674999999999983
20
31.599999999999984
10
-59.674999999999997
20
44.599999999999994
42
0.41421356237311585
10
-60.174999999999997
20
45.099999999999994
10
-73.174999999999969
20
45.09999999999998
42
0.41421356237307427
10
-73.674999999999955
20
44.599999999999994
10
-73.674999999999983
20
31.599999999999984
42
0.4142135623731002
10
-73.174999999999969
20
31.099999999999977
0
LWPOLYLINE
5
142
100
AcDbEntity
8
0
100
AcDbPolyline
90
8
70
1
43
0.0
10
-79.225000000000009
20
31.099999999999977
42
0.4142135623731002
10
-78.724999999999994
20
31.599999999999984
10
-78.725000000000009
20
44.599999999999994
42
0.41421356237311585
10
-79.225000000000009
20
45.099999999999994
10
-92.225000000000023
20
45.09999999999998
42
0.41421356237309509
10
-92.725000000000009
20
44.599999999999994
10
-92.724999999999994
20
31.599999999999984
42
0.41421356237309764
10
-92.225000000000023
20
31.100000000000012
0
LWPOLYLINE
5
143
100
AcDbEntity
8
0
100
AcDbPolyline
90
8
70
1
43
0.0
10
-41.125000000000007
20
31.099999999999977
42
0.4142135623731002
10
-40.624999999999993
20
31.599999999999984
10
-40.625
20
44.599999999999994
42
0.41421356237311585
10
-41.125000000000007
20
45.099999999999994
10
-54.125
20
45.09999999999998
42
0.41421356237307427
10
-54.624999999999986
20
44.599999999999994
10
-54.625
20
31.599999999999984
42
0.4142135623731002
10
-54.125
20
31.099999999999977
0
LWPOLYLINE
5
144
100
AcDbEntity
8
0
100
AcDbPolyline
90
8
70
1
43
0.0
10
-98.274999999999991
20
31.099999999999977
42
0.41421356237307161
10
-97.774999999999977
20
31.599999999999984
10
-97.774999999999977
20
44.599999999999994
42
0.41421356237307944
10
-98.274999999999991
20
45.099999999999994
10
-111.27499999999999
20
45.09999999999998
42
0.41421356237309509
10
-111.77499999999998
20
44.599999999999994
10
-111.77500000000001
20
31.599999999999984
42
0.41421356237307161
10
-111.27499999999999
20
31.099999999999977
0
LWPOLYLINE
5
145
100
AcDbEntity
8
0
100
AcDbPolyline
90
8
70
1
43
0.0
10
73.175000000000011
20
-45.100000000000009
42
0.41421356237309509
10
73.675000000000011
20
-44.600000000000009
10
73.675000000000011
20
-31.600000000000009
42
0.41421356237309509
10
73.175000000000011
20
-31.100000000000012
10
60.175000000000011
20
-31.100000000000012
42
0.41421356237309509
10
59.675000000000011
20
-31.600000000000009
10
59.675000000000011
20
-44.600000000000009
42
0.41421356237309509
10
60.175000000000011
20
-45.100000000000009
0
LWPOLYLINE
5
146
100
AcDbEntity
8
0
100
AcDbPolyline
90
8
70
1
43
0.0
10
54.125000000000014
20
-45.100000000000009
42
0.41421356237310542
10
54.625000000000014
20
-44.600000000000009
10
54.625000000000014
20
-31.600000000000009
42
0.41421356237309764
10
54.125000000000014
20
-31.100000000000012
10
41.125000000000014
20
-31.100000000000012
42
0.41421356237309509
10
40.625000000000014
20
-31.600000000000009
10
40.625000000000014
20
-44.600000000000009
42
0.41421356237309509
10
41.125000000000014
20
-45.100000000000009
0
LWPOLYLINE
5
147
100
AcDbEntity
8
0
100
AcDbPolyline
90
8
70
1
43
0.0
10
35.075000000000017
20
-45.100000000000009
42
0.41421356237309764
10
35.575000000000024
20
-44.600000000000009
10
35.575000000000017
20
-31.600000000000009
42
0.41421356237309509
10
35.075000000000017
20
-31.100000000000012
10
22.075000000000014
20
-31.100000000000012
42
0.41421356237309509
10
21.575000000000017
20
-31.600000000000009
10
21.575000000000024
20
-44.600000000000009
42
0.41421356237308204
10
22.075000000000014
20
-45.099999999999994
0
LWPOLYLINE
5
148
100
AcDbEntity
8
0
100
AcDbPolyline
90
8
70
1
43
0.0
10
-98.274999999999991
20
-45.100000000000009
42
0.41421356237310542
10
-97.775000000000006
20
-44.600000000000009
10
-97.774999999999977
20
-31.600000000000009
42
0.41421356237307161
10
-98.274999999999991
20
-31.100000000000001
10
-111.27499999999999
20
-31.100000000000012
42
0.4142135623731002
10
-111.77499999999998
20
-31.600000000000009
10
-111.77500000000001
20
-44.600000000000009
42
0.41421356237307944
10
-111.27499999999999
20
-45.100000000000016
0
LWPOLYLINE
5
149
100
AcDbEntity
8
0
100
AcDbPolyline
90
8
70
1
43
0.0
10
111.27500000000001
20
-26.050000000000004
42
0.41421356237311319
10
111.77500000000001
20
-25.550000000000015
10
111.77500000000002
20
-12.550000000000008
42
0.41421356237309637
10
111.27500000000001
20
-12.050000000000001
10
98.275000000000006
20
-12.050000000000001
42
0.41421356237309637
10
97.775000000000006
20
-12.550000000000008
10
97.77500000000002
20
-25.550000000000015
42
0.41421356237311319
10
98.275000000000006
20
-26.050000000000004
0
LWPOLYLINE
5
150
100
AcDbEntity
8
0
100
AcDbPolyline
90
8
70
1
43
0.0
10
54.125000000000014
20
-7.0000000000000107
42
0.41421356237310281
10
54.625000000000021
20
-6.5000000000000036
10
54.625000000000014
20
6.5000000000000036
42
0.41421356237309764
10
54.125000000000014
20
7.0000000000000018
10
41.125000000000014
20
6.9999999999999929
42
0.4142135623730957
10
40.625000000000028
20
6.5000000000000036
10
40.625000000000014
20
-6.5000000000000036
42
0.41421356237309509
10
41.125000000000014
20
-7.0000000000000018
0
LWPOLYLINE
5
151
100
AcDbEntity
8
0
100
AcDbPolyline
90
8
70
1
43
0.0
10
92.225000000000023
20
-45.100000000000009
42
0.41421356237310542
10
92.725000000000009
20
-44.600000000000009
10
92.725000000000009
20
-31.600000000000009
42
0.41421356237309764
10
92.225000000000023
20
-31.100000000000023
10
79.225000000000009
20
-31.100000000000012
42
0.41421356237309764
10
78.725000000000009
20
-31.600000000000009
10
78.725000000000009
20
-44.600000000000009
42
0.41421356237311585
10
79.225000000000009
20
-45.100000000000016
0
LWPOLYLINE
5
152
100
AcDbEntity
8
0
100
AcDbPolyline
90
8
70
1
43
0.0
10
-60.174999999999997
20
-45.100000000000009
42
0.41421356237310542
10
-59.675000000000004
20
-44.600000000000009
10
-59.674999999999997
20
-31.600000000000009
42
0.4142135623731002
10
-60.174999999999997
20
-31.100000000000001
10
-73.174999999999969
20
-31.100000000000012
42
0.41421356237309764
10
-73.674999999999969
20
-31.600000000000009
10
-73.674999999999983
20
-44.600000000000009
42
0.41421356237311585
10
-73.174999999999969
20
-45.100000000000016
0
LWPOLYLINE
5
153
100
AcDbEntity
8
0
100
AcDbPolyline
90
8
70
1
43
0.0
10
-41.125000000000007
20
-45.100000000000009
42
0.41421356237310542
10
-40.625000000000007
20
-44.600000000000009
10
-40.625
20
-31.600000000000009
42
0.4142135623731002
10
-41.125000000000007
20
-31.100000000000001
10
-54.125
20
-31.100000000000012
42
0.41421356237309764
10
-54.624999999999993
20
-31.600000000000009
10
-54.625
20
-44.600000000000009
42
0.41421356237311585
10
-54.125
20
-45.100000000000016
0
LWPOLYLINE
5
154
100
AcDbEntity
8
0
100
AcDbPolyline
90
8
70
1
43
0.0
10
92.225000000000023
20
-7.0000000000000107
42
0.41421356237307289
10
92.725000000000023
20
-6.5000000000000036
10
92.725000000000009
20
6.5000000000000036
42
0.41421356237309959
10
92.225000000000023
20
6.9999999999999929
10
79.225000000000009
20
6.9999999999999929
42
0.41421356237308526
10
78.725000000000023
20
6.5000000000000036
10
78.725000000000009
20
-6.5000000000000036
42
0.41421356237310281
10
79.225000000000009
20
-7.0000000000000107
0
LWPOLYLINE
5
155
100
AcDbEntity
8
0
100
AcDbPolyline
90
8
70
1
43
0.0
10
111.27500000000001
20
-45.100000000000009
42
0.41421356237310542
10
111.77500000000002
20
-44.600000000000009
10
111.77500000000002
20
-31.600000000000009
42
0.41421356237309243
10
111.27500000000001
20
-31.100000000000001
10
98.275000000000006
20
-31.100000000000012
42
0.41421356237310542
10
97.775000000000006
20
-31.600000000000009
10
97.77500000000002
20
-44.600000000000009
42
0.41421356237311063
10
98.275000000000006
20
-45.099999999999994
0
LWPOLYLINE
5
156
100
AcDbEntity
8
0
100
AcDbPolyline
90
8
70
1
43
0.0
10
-3.0250000000000021
20
-7.0000000000000107
42
0.41421356237309409
10
-2.5249999999999946
20
-6.5000000000000036
10
-2.524999999999995
20
6.5000000000000036
42
0.41421356237309409
10
-3.0250000000000021
20
7.0000000000000107
10
-16.024999999999974
20
6.9999999999999929
42
0.4142135623730957
10
-16.524999999999963
20
6.5000000000000036
10
-16.524999999999981
20
-6.5000000000000036
42
0.41421356237309692
10
-16.024999999999974
20
-7.0000000000000107
0
LWPOLYLINE
5
157
100
AcDbEntity
8
0
100
AcDbPolyline
90
56
70
1
43
0.0
10
113.52500000000001
20
-47.625000000000021
42
0.4142135623731118
10
114.30000000000004
20
-46.850000000000023
10
114.30000000000001
20
46.849999999999987
42
0.41421356237310508
10
113.52500000000003
20
47.624999999999964
10
108.20000000000002
20
47.625000000000014
42
-0.41421356237309509
10
106.20000000000003
20
49.625
10
106.20000000000003
20
50.15000000000002
42
0.41421356237309509
10
104.20000000000003
20
52.15000000000002
10
48.200000000000017
20
52.15000000000002
42
0.41421356237309109
10
46.200000000000031
20
50.150000000000013
10
46.200000000000017
20
49.625
42
-0.41421356237309509
10
44.200000000000017
20
47.625
10
32.000000000000028
20
47.625
42
-0.41421356237309509
10
30.000000000000028
20
49.625
10
30.000000000000032
20
50.15000000000002
42
0.41421356237309109
10
28.000000000000025
20
52.15000000000002
10
-27.999999999999979
20
52.15000000000002
42
0.41421356237309048
10
-29.999999999999979
20
50.15000000000002
10
-29.999999999999982
20
49.625
42
-0.4142135623730937
10
-31.999999999999975
20
47.625
10
-44.199999999999932
20
47.625
42
-0.41421356237309637
10
-46.199999999999939
20
49.625
10
-46.199999999999939
20
50.15000000000002
42
0.41421356237309109
10
-48.199999999999939
20
52.15000000000002
10
-104.19999999999996
20
52.15000000000002
42
0.41421356237309243
10
-106.19999999999996
20
50.150000000000006
10
-106.19999999999993
20
49.625
42
-0.4142135623730937
10
-108.19999999999992
20
47.624999999999993
10
-113.52499999999998
20
47.624999999999993
42
0.4142135623731118
10
-114.3
20
46.850000000000009
10
-114.29999999999998
20
-46.850000000000009
42
0.41421356237310508
10
-113.52499999999999
20
-47.624999999999986
10
-108.19999999999993
20
-47.625000000000021
42
-0.4142135623730937
10
-106.19999999999993
20
-49.625000000000021
10
-106.19999999999996
20
-50.150000000000006
42
0.41421356237309243
10
-104.19999999999995
20
-52.15000000000002
10
-48.199999999999932
20
-52.15000000000002
42
0.41421356237309109
10
-46.199999999999939
20
-50.150000000000013
10
-46.199999999999932
20
-49.625
42
-0.41421356237309509
10
-44.199999999999932
20
-47.625
10
-31.999999999999975
20
-47.625
42
-0.4142135623730937
10
-29.999999999999982
20
-49.625
10
-29.999999999999982
20
-50.15000000000002
42
0.41421356237309243
10
-27.999999999999979
20
-52.150000000000027
10
28.000000000000036
20
-52.15000000000002
42
0.41421356237308982
10
30.000000000000036
20
-50.150000000000013
10
30.000000000000028
20
-49.625
42
-0.41421356237309509
10
32.000000000000028
20
-47.625
10
44.200000000000017
20
-47.625
42
-0.41421356237309509
10
46.200000000000017
20
-49.625
10
46.20000000000001
20
-50.15000000000002
42
0.41421356237309243
10
48.200000000000017
20
-52.150000000000027
10
104.20000000000003
20
-52.15000000000002
42
0.41421356237309243
10
106.20000000000002
20
-50.150000000000013
10
106.20000000000002
20
-49.625
42
-0.41421356237309509
10
108.20000000000002
20
-47.625
0
ENDSEC
0
SECTION
2
OBJECTS
0
DICTIONARY
5
C
100
AcDbDictionary
3
ACAD_GROUP
350
D
3
ACAD_MLINESTYLE
350
17
0
DICTIONARY
5
D
100
AcDbDictionary
0
DICTIONARY
5
1A
330
C
100
AcDbDictionary
0
DICTIONARY
5
17
100
AcDbDictionary
0
ENDSEC
0
EOF
